HIERARCHY
ROOT joint_0
{
	OFFSET 0.000000 0.000000 0.000000
	CHANNELS 6 Xposition Yposition Zposition Zrotation Yrotation Xrotation 
	JOINT joint_1
	{
		OFFSET 11.612000 -0.419000 106.198000
		CHANNELS 3 Zrotation Yrotation Xrotation
		JOINT joint_2
		{
			OFFSET -1.708000 -1.022000 97.564090
			CHANNELS 3 Zrotation Yrotation Xrotation
			JOINT joint_3
			{
				OFFSET -4.121000 -1.538000 97.375000
				CHANNELS 3 Zrotation Yrotation Xrotation
				JOINT joint_4
				{
					OFFSET 5.442000 -2.123000 132.795900
					CHANNELS 3 Zrotation Yrotation Xrotation
					JOINT joint_5
					{
						OFFSET 21.935000 0.195000 82.975100
						CHANNELS 3 Zrotation Yrotation Xrotation
						End Site
						{
							OFFSET 0.000000 0.000000 0.000000
						}
					}
				}
				JOINT joint_6
				{
					OFFSET 4.262000 -30.048000 73.899900
					CHANNELS 3 Zrotation Yrotation Xrotation
					JOINT joint_7
					{
						OFFSET 9.731000 -136.810010 -21.963010
						CHANNELS 3 Zrotation Yrotation Xrotation
						JOINT joint_8
						{
							OFFSET 33.360000 -35.709000 -267.597900
							CHANNELS 3 Zrotation Yrotation Xrotation
							JOINT joint_9
							{
								OFFSET 36.156000 -29.759000 -240.558040
								CHANNELS 3 Zrotation Yrotation Xrotation
								End Site
								{
									OFFSET 0.000000 0.000000 0.000000
								}
							}
						}
					}
				}
				JOINT joint_10
				{
					OFFSET 2.027000 27.734000 74.914920
					CHANNELS 3 Zrotation Yrotation Xrotation
					JOINT joint_11
					{
						OFFSET -5.183000 136.784000 -23.604980
						CHANNELS 3 Zrotation Yrotation Xrotation
						JOINT joint_12
						{
							OFFSET 29.806000 37.229000 -267.809940
							CHANNELS 3 Zrotation Yrotation Xrotation
							JOINT joint_13
							{
								OFFSET 36.890000 46.524990 -237.772030
								CHANNELS 3 Zrotation Yrotation Xrotation
								End Site
								{
									OFFSET 0.000000 0.000000 0.000000
								}
							}
						}
					}
				}
			}
		}
	}
	JOINT joint_14
	{
		OFFSET -7.290000 -102.873990 -124.314940
		CHANNELS 3 Zrotation Yrotation Xrotation
		JOINT joint_15
		{
			OFFSET -15.466000 -19.909010 -438.533020
			CHANNELS 3 Zrotation Yrotation Xrotation
			JOINT joint_16
			{
				OFFSET -26.899000 -18.922000 -464.797000
				CHANNELS 3 Zrotation Yrotation Xrotation
				JOINT joint_17
				{
					OFFSET 179.329000 -12.011000 -84.174000
					CHANNELS 3 Zrotation Yrotation Xrotation
					End Site
					{
						OFFSET 0.000000 0.000000 0.000000
					}
				}
			}
		}
	}
	JOINT joint_18
	{
		OFFSET -6.225000 101.546000 -125.479980
		CHANNELS 3 Zrotation Yrotation Xrotation
		JOINT joint_19
		{
			OFFSET -13.973000 7.996000 -438.963010
			CHANNELS 3 Zrotation Yrotation Xrotation
			JOINT joint_20
			{
				OFFSET -44.294000 5.716000 -463.813970
				CHANNELS 3 Zrotation Yrotation Xrotation
				JOINT joint_21
				{
					OFFSET 178.505000 -4.689000 -85.139000
					CHANNELS 3 Zrotation Yrotation Xrotation
					End Site
					{
						OFFSET 0.000000 0.000000 0.000000
					}
				}
			}
		}
	}
}
MOTION
Frames: 6
Frame Time: 0.016667
8.447000 -109.629000 1130.490970 -0.314622 -3.762012 0.973936 -1.725897 8.053240 -1.008008 -1.837531 -1.533122 0.187128 -1.806234 1.485192 -0.128008 -0.413849 -0.715865 1.567490 0.000000 0.000000 0.000000 -2.422134 -0.857960 1.425915 0.088193 -1.513520 -2.081796 1.440173 -7.224329 2.601575 0.000000 0.000000 0.000000 -0.710454 0.291782 0.519713 -0.422075 0.272868 -1.222612 -1.288026 -4.129083 -3.457253 0.000000 0.000000 0.000000 -0.712394 2.186453 -2.343979 -0.737905 1.108159 -0.133464 -0.706601 0.541370 -0.294642 0.000000 0.000000 0.000000 1.589785 2.275119 -0.558944 1.529240 -0.621590 -0.181222 1.471175 1.825671 0.748468 0.000000 0.000000 0.000000 
9.861000 -109.778000 1130.500980 -0.297594 -3.666260 0.968017 -1.728057 8.058758 -0.975918 -1.840411 -1.535639 0.182017 -1.808710 1.488254 -0.125623 -0.413022 -0.764954 1.563888 0.000000 0.000000 0.000000 -2.419897 -0.829149 1.402503 0.085667 -1.480356 -2.056149 1.435661 -7.210351 2.588942 0.000000 0.000000 0.000000 -0.692636 0.314794 0.493433 -0.418002 0.294432 -1.222455 -1.283644 -4.111779 -3.447490 0.000000 0.000000 0.000000 -0.712071 2.216487 -2.330721 -0.731642 1.027992 -0.145798 -0.700048 0.444097 -0.298124 0.000000 0.000000 0.000000 1.579784 2.217737 -0.545613 1.521706 -0.548637 -0.176464 1.462211 1.693875 0.740804 0.000000 0.000000 0.000000 
11.487000 -109.927000 1130.515990 -0.281975 -3.564467 0.956948 -1.727376 8.061759 -0.936344 -1.840493 -1.538991 0.178469 -1.808477 1.491654 -0.124203 -0.411520 -0.813035 1.557596 0.000000 0.000000 0.000000 -2.419392 -0.791331 1.378007 0.081326 -1.438067 -2.030342 1.427891 -7.186267 2.566265 0.000000 0.000000 0.000000 -0.667151 0.341794 0.453011 -0.412311 0.319677 -1.217569 -1.276062 -4.085238 -3.425710 0.000000 0.000000 0.000000 -0.712959 2.264327 -2.310406 -0.724434 0.929347 -0.166156 -0.692600 0.320040 -0.302981 0.000000 0.000000 0.000000 1.568194 2.146479 -0.528999 1.513470 -0.432699 -0.164980 1.452175 1.509603 0.731251 0.000000 0.000000 0.000000 
13.462000 -110.108000 1130.532960 -0.277807 -3.448209 0.946705 -1.722853 8.054031 -0.896654 -1.836707 -1.542895 0.172643 -1.804210 1.494847 -0.121145 -0.409831 -0.866095 1.550547 0.000000 0.000000 0.000000 -2.418136 -0.736886 1.354958 0.074545 -1.378925 -2.007211 1.420558 -7.165944 2.542619 0.000000 0.000000 0.000000 -0.630603 0.380380 0.402938 -0.404052 0.355838 -1.202048 -1.268975 -4.057041 -3.409000 0.000000 0.000000 0.000000 -0.708542 2.319033 -2.285685 -0.711009 0.825713 -0.193499 -0.679179 0.183870 -0.305852 0.000000 0.000000 0.000000 1.562018 2.083677 -0.510843 1.510499 -0.323028 -0.155279 1.447139 1.329070 0.724191 0.000000 0.000000 0.000000 
15.838000 -110.346000 1130.537960 -0.295274 -3.316483 0.940946 -1.711760 8.028060 -0.864685 -1.826064 -1.542840 0.165690 -1.793117 1.495131 -0.117558 -0.408572 -0.923280 1.545133 0.000000 0.000000 0.000000 -2.414485 -0.661326 1.340471 0.064517 -1.299019 -1.993054 1.415988 -7.157718 2.524411 0.000000 0.000000 0.000000 -0.583360 0.434182 0.343184 -0.392064 0.407237 -1.165121 -1.265463 -4.033996 -3.410795 0.000000 0.000000 0.000000 -0.692684 2.379598 -2.254913 -0.685211 0.720219 -0.232646 -0.654349 0.044894 -0.303567 0.000000 0.000000 0.000000 1.566729 2.046901 -0.491899 1.517526 -0.252400 -0.152650 1.451944 1.195503 0.723069 0.000000 0.000000 0.000000 
18.560000 -110.628000 1130.531010 -0.329862 -3.173026 0.937402 -1.694776 7.988742 -0.837450 -1.809386 -1.541624 0.158263 -1.775957 1.494398 -0.112759 -0.407499 -0.982856 1.540390 0.000000 0.000000 0.000000 -2.409097 -0.567874 1.332937 0.051555 -1.201573 -1.987314 1.412918 -7.156843 2.508463 0.000000 0.000000 0.000000 -0.526705 0.499936 0.270260 -0.376638 0.470888 -1.107927 -1.264100 -4.012916 -3.424726 0.000000 0.000000 0.000000 -0.668152 2.450917 -2.217645 -0.649339 0.607299 -0.283197 -0.620367 -0.101081 -0.297458 0.000000 0.000000 0.000000 1.579680 2.028232 -0.471477 1.532288 -0.202468 -0.154239 1.464266 1.088909 0.726243 0.000000 0.000000 0.000000 
